<svg xmlns="http://www.w3.org/2000/svg" width="216" height="216" viewBox="0 0 216 216"><defs><style>.cls-1{fill:#1d2757;}.cls-2{fill:#141c3c;}.cls-3{fill:#044f88;}.cls-4{fill:#fff;}.cls-5{fill:#cd138c;}.cls-6{fill:#b4a9a2;}.cls-7{fill:#b5a9a2;}.cls-8{fill:#df1b53;}.cls-9{fill:#00aeef;}.cls-10{fill:#b5b5b6;}.cls-11{fill:#373e50;}.cls-12{fill:#2782a6;}</style></defs><g id="Layer_2" data-name="Layer 2"><g id="Layer_3" data-name="Layer 3"><g id="Layer_2-2" data-name="Layer 2"><g id="Layer_4" data-name="Layer 4"><path d="M108,214A106,106,0,0,1,33.046,33.046,106,106,0,1,1,182.953,182.953,105.3,105.3,0,0,1,108,214Z"/><path class="cls-1" d="M108,4a104,104,0,0,1,73.539,177.539A104,104,0,0,1,34.461,34.461,103.32,103.32,0,0,1,108,4m0-4a108,108,0,1,0,76.368,31.632A107.664,107.664,0,0,0,108,0Z"/><circle class="cls-2" cx="108" cy="108" r="72.217"/><g id="iv62H6"><path class="cls-3" d="M122.072,148.205c0-1.471,0-2.941,0-4.411,0-1.588-.029-3.179.035-4.765.089-2.211.248-4.419.388-6.628.083-1.308.254-2.614.256-3.922a19.481,19.481,0,0,0-.344-2.679q-.5-3.565-1.006-7.129-.547-3.89-1.091-7.778c-.337-2.406-.668-4.812-1.015-7.216-.2-1.41-.458-2.814-.643-4.226a7.068,7.068,0,0,1,.488-4.061,3.154,3.154,0,0,1,3.313-1.986,3.723,3.723,0,0,1,2.414,1.445c1.053,1.25,1.356,3.8,1.858,4.321,1.035,5.573.3-1.321-.208-4.494a8.107,8.107,0,0,1,.136-3.72,3.229,3.229,0,0,1,4.445-2.2,5.087,5.087,0,0,1,3.32,4.2q1.053,6.013,2.083,12.033,1.155,6.7,2.3,13.412c.323,1.877.62,3.759.984,5.628a5.011,5.011,0,0,0,1.153,2.322,1.352,1.352,0,0,0,1.915.313,4.676,4.676,0,0,0,2.163-2.775q3.81-14.886,7.686-29.754a6.339,6.339,0,0,1,.968-2.076,3.369,3.369,0,0,1,5.717.174A5.314,5.314,0,0,1,160,96.4c-1.094,5.473-2.728,14.379-2.4,12.887.265-1.206.519-2.416.8-3.619a4.22,4.22,0,0,1,3.42-3.263,2.634,2.634,0,0,1,3.046,2.37,9.511,9.511,0,0,1-.218,3.334q-1.074,6.01-2.154,12.02c-.48,2.676-1,5.346-1.419,8.031a7.923,7.923,0,0,0,.144,2.076c.241,2.1.519,4.188.743,6.285.213,2,.445,4,.544,6,.133,2.691.221,5.388.188,8.08-.032,2.561-1.335,3.843-1.533,6.4.119,2.922-10.086,10.086-13.448,13.028-.448.392-14.759,6.585-17.292,6.618-2.192.029-12.977-5.151-20.34-22.041a45.751,45.751,0,0,1-3.311-8.939c-.169-.721-.261-1.462-.467-2.172a13.916,13.916,0,0,0-2.517-4.51,55.747,55.747,0,0,0-8.475-8.611.578.578,0,0,1-.227-.7,3.7,3.7,0,0,1,1.633-2.187,8.257,8.257,0,0,1,5.163-1.073,7.757,7.757,0,0,1,3.271.84,12.431,12.431,0,0,1,1.5,1.159,3.078,3.078,0,0,0,.381.273,20.971,20.971,0,0,1,6.939,6.966c3.007,2.775,7.379,11.109,7.694,11.988.075.206.185.4.278.6Z"/></g><path class="cls-1" d="M21.647,139.8a1.5,1.5,0,0,1-1.416-1.006A93.512,93.512,0,0,1,36.7,48.253,1.5,1.5,0,0,1,39,50.182,90.5,90.5,0,0,0,23.063,137.8a1.5,1.5,0,0,1-.922,1.91A1.47,1.47,0,0,1,21.647,139.8Zm173.293-1.739a1.478,1.478,0,0,1-.465-.075,1.5,1.5,0,0,1-.96-1.891,89.721,89.721,0,0,0-15.691-84.916,1.5,1.5,0,0,1,2.326-1.895,92.711,92.711,0,0,1,16.216,87.742A1.5,1.5,0,0,1,194.94,138.057Z"/><circle class="cls-4" cx="64.219" cy="146.788" r="5.939"/><circle class="cls-4" cx="125.314" cy="52.984" r="5.939"/><circle class="cls-4" cx="93.277" cy="162.635" r="5.939"/><circle class="cls-4" cx="86.011" cy="142.818" r="5.939"/><path class="cls-5" d="M40.115,177.374l8.432-9.848,2.3,1.965-5.868,6.855a5.628,5.628,0,0,1-1.507,1.289,2.7,2.7,0,0,1-1.343.407,4.46,4.46,0,0,1-1.053-.151,2.25,2.25,0,0,1-.723-.318Zm15.836-3.511,2.3,1.966-8.432,9.849-2.3-1.966,3.389-3.959-4.674-4,1.965-2.3,4.675,4Z"/><path class="cls-5" d="M61.886,184.231l-3.559,2.82a6.112,6.112,0,0,1-1.8,1.087,3.9,3.9,0,0,1-1.593.295,6.358,6.358,0,0,1-1.233-.2,2.842,2.842,0,0,1-.827-.345l-.29-.2,10.154-8.054Zm4.337-3.475-2.511,13.617L60.9,192.682l.321-1.724L57.294,188.6l2.532-2,1.972,1.184.779-4.105-.03.008.879-4.609.011-.017,2.8,1.68Z"/><path class="cls-5" d="M70.705,194.164l8.907,3.5-1.1,2.813-11.721-4.605,4.741-12.067,2.813,1.1Zm12.543-5.754-.056.143a2.161,2.161,0,0,1-.227.369,3.843,3.843,0,0,1-.4.489,2.63,2.63,0,0,1-.621.44,2.912,2.912,0,0,1-.872.3,3.963,3.963,0,0,1-1.145.008,5.707,5.707,0,0,1-1.449-.382l-4.709-1.848,1.1-2.815Z"/><path class="cls-5" d="M87.4,189.411l-1.068,5.1,8.071,9.635-4.2-.881-4.62-5.176-.845,4.03-2.958-.62,2.665-12.711Zm6.675,5.628-5,1.883L87,194.45q4.169-1.318,9.906-3.069c.017.062.037.145.061.247a2.329,2.329,0,0,1-.017.611,2.422,2.422,0,0,1-.287.892,3.58,3.58,0,0,1-.9.964A6.5,6.5,0,0,1,94.077,195.039Z"/><path class="cls-5" d="M106.726,200.183l-8.745-.529.183-3.016,8.744.528Z"/><path class="cls-5" d="M115.144,196.811l-1.232,4.369a6.09,6.09,0,0,1-.824,1.937,3.9,3.9,0,0,1-1.12,1.174,6.285,6.285,0,0,1-1.118.557,2.841,2.841,0,0,1-.872.2l-.352.009,3.51-12.475Zm1.478-5.357,5.944,12.5-3.273.279-.75-1.585-4.561.389.878-3.107,2.291-.2-1.772-3.783-.021.023-1.987-4.248,0-.023,3.251-.275Z"/><path class="cls-5" d="M133.092,196.7l-8.535,1.974-.681-2.944,8.534-1.974Z"/><path class="cls-5" d="M137.113,191.817l8.922-3.463L149,195.99l-11.739,4.557-1.094-2.817,8.922-3.464-.776-2-8.922,3.463-2.822-7.268,2.818-1.094Zm7.195-7.914c.01.029.029.076.055.144a3.854,3.854,0,0,1,.114.414,3.128,3.128,0,0,1,.085.612,4.107,4.107,0,0,1-.045.7,2.332,2.332,0,0,1-.232.735,2.4,2.4,0,0,1-.539.668,2.9,2.9,0,0,1-.9.536l-5.839,2.267-1.094-2.818Z"/><path class="cls-5" d="M152.424,179.2l10.825,8.634-2.819,1.686-1.369-1.095-3.929,2.348-.573-3.179,1.973-1.179-3.252-2.624-.007.03-3.65-2.947-.011-.018,2.8-1.674Zm1.02,5.463.808,4.467a6.087,6.087,0,0,1,.108,2.1,3.9,3.9,0,0,1-.492,1.545,6.12,6.12,0,0,1-.76.99,2.908,2.908,0,0,1-.694.568l-.312.161-2.315-12.751Z"/><path class="cls-5" d="M154.9,178.108l6.621-5.5,1.931,2.326,6.366,7.664-2.325,1.931-6.366-7.666-4.3,3.569Zm13.242-11,.111.135a2.086,2.086,0,0,1,.207.368,4.107,4.107,0,0,1,.227.581,2.715,2.715,0,0,1,.086.754,2.945,2.945,0,0,1-.155.912,3.935,3.935,0,0,1-.544,1.007,5.782,5.782,0,0,1-1.034,1.086l-3.15,2.617-1.931-2.325Z"/><path class="cls-6" d="M49.062,30.67l11.85,7.16-2.578,2.036-1.5-.908-3.591,2.835-.979-3.076,1.8-1.426-3.564-2.18,0,.031-4-2.45-.013-.017,2.56-2.023Zm1.719,5.284,1.378,4.325a6.079,6.079,0,0,1,.38,2.071,3.887,3.887,0,0,1-.289,1.595,6.107,6.107,0,0,1-.625,1.08,2.837,2.837,0,0,1-.615.653l-.288.2L46.778,33.535Z"/><path class="cls-6" d="M66.238,21.733l2.052.6,3.332,6.065-.649,2.23L70.428,32.5,65.035,35.46l-1.454-2.648,5.392-2.963-3.332-6.064L59.75,27.021l2.888,5.259a5.586,5.586,0,0,1,.675,1.865,2.7,2.7,0,0,1-.092,1.4,4.449,4.449,0,0,1-.513.932,2.247,2.247,0,0,1-.551.565l-.269.147L55.646,25.828l8.54-4.692Z"/><path class="cls-6" d="M80.973,16.042l1.925.927L85.183,23.5l-1.007,2.093-.847,1.757-5.808,2.033-1-2.853L82.331,24.5l-2.286-6.531L73.7,20.188l1.981,5.663a5.6,5.6,0,0,1,.358,1.95,2.7,2.7,0,0,1-.322,1.366,4.382,4.382,0,0,1-.66.834,2.25,2.25,0,0,1-.637.467l-.289.1L69.85,18.333l9.2-3.218Z"/><path class="cls-6" d="M90.263,15.948l2.29,3.92-.88,4.614L85.141,13.268c.043-.008.1-.022.182-.042a3.289,3.289,0,0,1,.489-.061,4,4,0,0,1,.735.007,4.568,4.568,0,0,1,.879.206,4.388,4.388,0,0,1,.977.455,4.9,4.9,0,0,1,.964.835A6.175,6.175,0,0,1,90.263,15.948Zm7.679-4.862-2.614,13.6,0,.022-3.216.548,0-.022.857-4.611.026.018,1.709-9Z"/><path class="cls-6" d="M101.154,10.874l.11,0a2.384,2.384,0,0,1,.274.029,3.856,3.856,0,0,1,.407.082,2.645,2.645,0,0,1,.472.191,3,3,0,0,1,.508.322,3.122,3.122,0,0,1,.478.487,3.182,3.182,0,0,1,.414.673,4.608,4.608,0,0,1,.286.916,6.234,6.234,0,0,1,.125,1.2l.117,9.043-3.022.039Zm9.875-.129,3.022-.039.169,12.984-9.152.119-.04-3.022,6.13-.08Z"/><path class="cls-6" d="M118.386,24.2,115.4,23.71l2.075-12.574,2.98.491Zm7.513-1.824a3.068,3.068,0,0,1,1.02.346,2.568,2.568,0,0,1,.686.546,2.414,2.414,0,0,1,.4.676,3.727,3.727,0,0,1,.2.666,2.971,2.971,0,0,1,.043.617c-.008.221-.013.361-.015.419a1.44,1.44,0,0,1-.016.175l-9.27-1.528.491-2.982Z"/><path class="cls-6" d="M133.2,24.358l9.052,3.1-.981,2.859-11.911-4.084,4.205-12.262,2.859.98Zm12.277-6.3c-.01.028-.028.076-.051.145a2.45,2.45,0,0,1-.211.38,3.841,3.841,0,0,1-.382.5,2.6,2.6,0,0,1-.6.466,2.93,2.93,0,0,1-.858.342,3.991,3.991,0,0,1-1.144.06,5.849,5.849,0,0,1-1.465-.317L135.983,18l.98-2.859Z"/><path class="cls-6" d="M151.512,26.919l-3.43,2.974a6.1,6.1,0,0,1-1.753,1.167,3.9,3.9,0,0,1-1.58.364,6.165,6.165,0,0,1-1.239-.149,2.879,2.879,0,0,1-.843-.307l-.3-.186,9.784-8.5Zm4.177-3.664-1.9,13.714L150.9,35.4l.244-1.736-4.024-2.181,2.442-2.114,2.021,1.1.6-4.135-.03.009.673-4.642.01-.019,2.869,1.555Z"/><path class="cls-6" d="M154.766,37.62,162.742,27.4l2.382,1.86-5.552,7.111a5.6,5.6,0,0,1-1.448,1.356,2.69,2.69,0,0,1-1.322.467,4.36,4.36,0,0,1-1.059-.1,2.249,2.249,0,0,1-.736-.283ZM170.424,33.4l2.381,1.86-7.978,10.218-2.382-1.86-.227-9.707,2.937-3.762.228,9.706Z"/></g><path class="cls-7" d="M112.705,37.583a.8.8,0,0,1-.8-.8v-.16a.8.8,0,1,1,1.6,0v.16A.8.8,0,0,1,112.705,37.583Z"/><path class="cls-7" d="M112.705,177.87a.8.8,0,0,1-.8-.8v-.318a.8.8,0,1,1,1.6,0v.318A.8.8,0,0,1,112.705,177.87Zm0-3.507a.8.8,0,0,1-.8-.8v-.319a.8.8,0,1,1,1.6,0v.319A.8.8,0,0,1,112.705,174.363Zm0-3.508a.8.8,0,0,1-.8-.8v-.319a.8.8,0,0,1,1.6,0v.319A.8.8,0,0,1,112.705,170.855Zm0-3.506a.8.8,0,0,1-.8-.8v-.319a.8.8,0,0,1,1.6,0v.319A.8.8,0,0,1,112.705,167.349Zm0-3.507a.8.8,0,0,1-.8-.8v-.319a.8.8,0,1,1,1.6,0v.319A.8.8,0,0,1,112.705,163.842Zm0-3.508a.8.8,0,0,1-.8-.8v-.318a.8.8,0,1,1,1.6,0v.318A.8.8,0,0,1,112.705,160.334Zm0-3.507a.8.8,0,0,1-.8-.8v-.319a.8.8,0,1,1,1.6,0v.319A.8.8,0,0,1,112.705,156.827Zm0-3.507a.8.8,0,0,1-.8-.8v-.32a.8.8,0,0,1,1.6,0v.32A.8.8,0,0,1,112.705,153.32Zm0-3.507a.8.8,0,0,1-.8-.8v-.319a.8.8,0,0,1,1.6,0v.319A.8.8,0,0,1,112.705,149.813Zm0-3.507a.8.8,0,0,1-.8-.8v-.319a.8.8,0,1,1,1.6,0v.319A.8.8,0,0,1,112.705,146.306Zm0-3.508a.8.8,0,0,1-.8-.8v-.318a.8.8,0,0,1,1.6,0V142A.8.8,0,0,1,112.705,142.8Zm0-3.507a.8.8,0,0,1-.8-.8v-.318a.8.8,0,0,1,1.6,0v.318A.8.8,0,0,1,112.705,139.291Zm0-3.507a.8.8,0,0,1-.8-.8v-.319a.8.8,0,1,1,1.6,0v.319A.8.8,0,0,1,112.705,135.784Zm0-3.508a.8.8,0,0,1-.8-.8v-.319a.8.8,0,1,1,1.6,0v.319A.8.8,0,0,1,112.705,132.276Zm0-3.506a.8.8,0,0,1-.8-.8v-.32a.8.8,0,0,1,1.6,0v.32A.8.8,0,0,1,112.705,128.77Zm0-3.507a.8.8,0,0,1-.8-.8v-.319a.8.8,0,0,1,1.6,0v.319A.8.8,0,0,1,112.705,125.263Zm0-3.508a.8.8,0,0,1-.8-.8v-.318a.8.8,0,1,1,1.6,0v.318A.8.8,0,0,1,112.705,121.755Zm0-3.507a.8.8,0,0,1-.8-.8v-.319a.8.8,0,0,1,1.6,0v.319A.8.8,0,0,1,112.705,118.248Zm0-3.508a.8.8,0,0,1-.8-.8v-.318a.8.8,0,0,1,1.6,0v.318A.8.8,0,0,1,112.705,114.74Zm0-3.507a.8.8,0,0,1-.8-.8v-.319a.8.8,0,0,1,1.6,0v.319A.8.8,0,0,1,112.705,111.233Zm0-3.507a.8.8,0,0,1-.8-.8v-.319a.8.8,0,0,1,1.6,0v.319A.8.8,0,0,1,112.705,107.726Zm0-3.507a.8.8,0,0,1-.8-.8V103.1a.8.8,0,1,1,1.6,0v.318A.8.8,0,0,1,112.705,104.219Zm0-3.507a.8.8,0,0,1-.8-.8v-.319a.8.8,0,0,1,1.6,0v.319A.8.8,0,0,1,112.705,100.712Zm0-3.507a.8.8,0,0,1-.8-.8v-.319a.8.8,0,0,1,1.6,0v.319A.8.8,0,0,1,112.705,97.205Zm0-3.508a.8.8,0,0,1-.8-.8v-.318a.8.8,0,0,1,1.6,0V92.9A.8.8,0,0,1,112.705,93.7Zm0-3.507a.8.8,0,0,1-.8-.8v-.319a.8.8,0,1,1,1.6,0v.319A.8.8,0,0,1,112.705,90.19Zm0-3.507a.8.8,0,0,1-.8-.8v-.319a.8.8,0,0,1,1.6,0v.319A.8.8,0,0,1,112.705,86.683Zm0-3.507a.8.8,0,0,1-.8-.8v-.319a.8.8,0,0,1,1.6,0v.319A.8.8,0,0,1,112.705,83.176Zm0-3.508a.8.8,0,0,1-.8-.8V78.55a.8.8,0,0,1,1.6,0v.319A.8.8,0,0,1,112.705,79.668Zm0-3.506a.8.8,0,0,1-.8-.8v-.319a.8.8,0,0,1,1.6,0v.319A.8.8,0,0,1,112.705,76.162Zm0-3.508a.8.8,0,0,1-.8-.8v-.318a.8.8,0,1,1,1.6,0v.318A.8.8,0,0,1,112.705,72.654Zm0-3.507a.8.8,0,0,1-.8-.8v-.319a.8.8,0,0,1,1.6,0v.319A.8.8,0,0,1,112.705,69.147Zm0-3.507a.8.8,0,0,1-.8-.8v-.319a.8.8,0,1,1,1.6,0v.319A.8.8,0,0,1,112.705,65.64Zm0-3.507a.8.8,0,0,1-.8-.8v-.319a.8.8,0,1,1,1.6,0v.319A.8.8,0,0,1,112.705,62.133Zm0-3.508a.8.8,0,0,1-.8-.8v-.319a.8.8,0,1,1,1.6,0v.319A.8.8,0,0,1,112.705,58.625Zm0-3.507a.8.8,0,0,1-.8-.8V54a.8.8,0,1,1,1.6,0v.318A.8.8,0,0,1,112.705,55.118Zm0-3.507a.8.8,0,0,1-.8-.8v-.319a.8.8,0,0,1,1.6,0v.319A.8.8,0,0,1,112.705,51.611Zm0-3.507a.8.8,0,0,1-.8-.8v-.319a.8.8,0,0,1,1.6,0V47.3A.8.8,0,0,1,112.705,48.1Zm0-3.507a.8.8,0,0,1-.8-.8v-.319a.8.8,0,1,1,1.6,0V43.8A.8.8,0,0,1,112.705,44.6Zm0-3.508a.8.8,0,0,1-.8-.8v-.319a.8.8,0,1,1,1.6,0v.319A.8.8,0,0,1,112.705,41.089Z"/><path class="cls-7" d="M112.705,181.219a.8.8,0,0,1-.8-.8v-.16a.8.8,0,0,1,1.6,0v.16A.8.8,0,0,1,112.705,181.219Z"/><path class="cls-7" d="M166.062,68.716h-.32a.8.8,0,1,1,0-1.6h.32a.8.8,0,1,1,0,1.6Zm-3.518,0h-.319a.8.8,0,1,1,0-1.6h.319a.8.8,0,1,1,0,1.6Zm-3.518,0h-.32a.8.8,0,1,1,0-1.6h.32a.8.8,0,1,1,0,1.6Zm-3.518,0h-.321a.8.8,0,0,1,0-1.6h.321a.8.8,0,1,1,0,1.6Zm-3.519,0h-.319a.8.8,0,1,1,0-1.6h.319a.8.8,0,1,1,0,1.6Zm-3.517,0h-.321a.8.8,0,0,1,0-1.6h.321a.8.8,0,0,1,0,1.6Zm-3.519,0h-.32a.8.8,0,1,1,0-1.6h.32a.8.8,0,1,1,0,1.6Zm-3.518,0h-.32a.8.8,0,1,1,0-1.6h.32a.8.8,0,0,1,0,1.6Zm-3.518,0h-.32a.8.8,0,1,1,0-1.6h.32a.8.8,0,1,1,0,1.6Zm-3.519,0h-.32a.8.8,0,1,1,0-1.6h.32a.8.8,0,1,1,0,1.6Zm-3.518,0h-.319a.8.8,0,1,1,0-1.6h.319a.8.8,0,1,1,0,1.6Zm-3.518,0h-.32a.8.8,0,1,1,0-1.6h.32a.8.8,0,1,1,0,1.6Zm-3.518,0h-.321a.8.8,0,0,1,0-1.6h.321a.8.8,0,1,1,0,1.6Zm-3.519,0h-.319a.8.8,0,1,1,0-1.6h.319a.8.8,0,1,1,0,1.6Zm-3.517,0h-.321a.8.8,0,1,1,0-1.6h.321a.8.8,0,0,1,0,1.6Zm-3.519,0h-.32a.8.8,0,1,1,0-1.6h.32a.8.8,0,1,1,0,1.6Zm-3.518,0h-.32a.8.8,0,1,1,0-1.6h.32a.8.8,0,0,1,0,1.6Zm-3.519,0h-.319a.8.8,0,1,1,0-1.6h.319a.8.8,0,1,1,0,1.6Zm-3.518,0h-.319a.8.8,0,1,1,0-1.6h.319a.8.8,0,1,1,0,1.6Zm-3.518,0H98.9a.8.8,0,0,1,0-1.6h.32a.8.8,0,1,1,0,1.6Zm-3.518,0h-.32a.8.8,0,1,1,0-1.6h.32a.8.8,0,1,1,0,1.6Zm-3.518,0h-.32a.8.8,0,1,1,0-1.6h.32a.8.8,0,0,1,0,1.6Zm-3.518,0h-.32a.8.8,0,1,1,0-1.6h.32a.8.8,0,0,1,0,1.6Zm-3.519,0h-.32a.8.8,0,1,1,0-1.6h.32a.8.8,0,1,1,0,1.6Zm-3.518,0h-.32a.8.8,0,1,1,0-1.6h.32a.8.8,0,1,1,0,1.6Zm-3.518,0h-.32a.8.8,0,1,1,0-1.6h.32a.8.8,0,1,1,0,1.6Zm-3.519,0h-.319a.8.8,0,1,1,0-1.6h.319a.8.8,0,1,1,0,1.6Zm-3.518,0h-.32a.8.8,0,0,1,0-1.6h.32a.8.8,0,1,1,0,1.6Zm-3.518,0h-.32a.8.8,0,0,1,0-1.6h.32a.8.8,0,1,1,0,1.6Zm-3.518,0h-.32a.8.8,0,1,1,0-1.6h.32a.8.8,0,0,1,0,1.6Zm-3.518,0H60.2a.8.8,0,1,1,0-1.6h.32a.8.8,0,0,1,0,1.6Zm-3.518,0h-.32a.8.8,0,1,1,0-1.6H57a.8.8,0,0,1,0,1.6Zm-3.519,0h-.32a.8.8,0,1,1,0-1.6h.32a.8.8,0,1,1,0,1.6Zm-3.518,0h-.32a.8.8,0,1,1,0-1.6h.32a.8.8,0,1,1,0,1.6Z"/><path class="cls-8" d="M108,180.813a72.59,72.59,0,1,1,72.59-72.589A72.672,72.672,0,0,1,108,180.813Zm0-144.432a71.843,71.843,0,1,0,71.844,71.843A71.925,71.925,0,0,0,108,36.381Z"/><path class="cls-9" d="M108,182.04a73.816,73.816,0,1,1,73.816-73.816A73.9,73.9,0,0,1,108,182.04Zm0-144.433a70.617,70.617,0,1,0,70.617,70.617A70.7,70.7,0,0,0,108,37.607Z"/><rect class="cls-9" x="109.93" y="33.341" width="5.152" height="2.389" transform="translate(72.81 145.327) rotate(-87.353)"/><rect class="cls-9" x="101.544" y="28.835" width="2.458" height="7.924" transform="translate(-1.361 4.617) rotate(-2.557)"/><rect class="cls-9" x="91.537" y="33.763" width="2.389" height="4.319" transform="translate(-5.317 19.305) rotate(-11.556)"/><rect class="cls-9" x="81.897" y="36.276" width="2.389" height="4.223" transform="translate(-8.098 30.497) rotate(-19.851)"/><rect class="cls-9" x="72.727" y="40.434" width="2.389" height="3.718" transform="translate(-11.243 41.974) rotate(-29.561)"/><rect class="cls-9" x="64.153" y="45.42" width="2.389" height="3.521" transform="translate(-15.237 48.719) rotate(-36.922)"/><rect class="cls-9" x="167.986" y="150.265" width="2.389" height="6.384" transform="translate(-53.123 205.919) rotate(-55.488)"/><rect class="cls-9" x="172.597" y="142.456" width="2.389" height="4.32" transform="translate(-32.275 237.641) rotate(-64.061)"/><rect class="cls-9" x="176.547" y="133.351" width="2.388" height="4.319" transform="translate(-7.031 261.265) rotate(-71.561)"/><rect class="cls-9" x="179.721" y="124.068" width="2.388" height="4.574" transform="translate(20.198 277.57) rotate(-78.186)"/><rect class="cls-9" x="181.943" y="112.868" width="2.458" height="7.226" transform="translate(51.238 288.857) rotate(-85.023)"/><rect class="cls-9" x="180.961" y="104.638" width="4.177" height="2.389" transform="translate(-10 19.579) rotate(-5.96)"/><rect class="cls-9" x="178.753" y="94.916" width="5.475" height="2.389" transform="translate(-18.313 48.629) rotate(-14.536)"/><rect class="cls-9" x="177.403" y="84.872" width="6.576" height="2.458" transform="translate(-17.934 61.383) rotate(-18.385)"/><rect class="cls-9" x="172.563" y="75.806" width="5.736" height="2.389" transform="translate(-14.667 100.832) rotate(-30.843)"/><rect class="cls-9" x="167.742" y="67.151" width="5.768" height="2.389" transform="translate(-7.624 113.194) rotate(-35.952)"/><rect class="cls-9" x="161.741" y="59.084" width="5.786" height="2.389" transform="translate(4.362 131.346) rotate(-44.023)"/><rect class="cls-9" x="154.846" y="51.999" width="5.641" height="2.389" transform="translate(15.557 139.758) rotate(-49.991)"/><rect class="cls-9" x="147.379" y="44.465" width="7.027" height="2.458" transform="translate(27.048 143.26) rotate(-55.079)"/><rect class="cls-9" x="138.568" y="41.252" width="4.955" height="2.388" transform="translate(44.886 154.021) rotate(-65.992)"/><rect class="cls-9" x="129.354" y="37.518" width="5.169" height="2.388" transform="translate(56.884 153.921) rotate(-73.269)"/><rect class="cls-9" x="119.718" y="34.792" width="5.142" height="2.39" transform="translate(69.276 151.915) rotate(-81.824)"/><rect class="cls-9" x="53.853" y="50.451" width="2.386" height="7.324" transform="translate(-22.141 54.86) rotate(-45.065)"/><rect class="cls-9" x="48.805" y="60.278" width="2.319" height="4.955" transform="translate(-30.25 63.357) rotate(-51.904)"/><rect class="cls-9" x="43.261" y="68.514" width="2.319" height="4.536" transform="translate(-38.966 76.248) rotate(-61.639)"/><rect class="cls-9" x="38.646" y="76.884" width="2.319" height="4.645" transform="translate(-48.581 85.976) rotate(-67.698)"/><rect class="cls-9" x="35.429" y="86.156" width="2.32" height="4.193" transform="translate(-58.316 99.222) rotate(-74.075)"/><rect class="cls-9" x="31.699" y="94.085" width="2.386" height="6.66" transform="translate(-68.426 114.916) rotate(-81.143)"/><rect class="cls-9" x="30.917" y="106.09" width="4.535" height="2.319" transform="translate(-0.451 0.141) rotate(-0.241)"/><rect class="cls-9" x="31.523" y="115.677" width="4.193" height="2.32" transform="translate(-13.156 4.618) rotate(-6.575)"/><rect class="cls-9" x="33.041" y="125.191" width="4.193" height="2.319" transform="translate(-29.642 12.321) rotate(-14.06)"/><rect class="cls-9" x="35.789" y="134.425" width="4.193" height="2.319" transform="translate(-47.198 23.427) rotate(-21.573)"/><rect class="cls-9" x="38.112" y="144.043" width="6.325" height="2.387" transform="translate(-63.177 36.208) rotate(-27.907)"/><rect class="cls-9" x="47.085" y="153.893" width="3.729" height="2.319" transform="translate(-88.257 67.807) rotate(-40.028)"/><rect class="cls-9" x="53.478" y="161.111" width="3.691" height="2.319" transform="translate(-102.77 95.945) rotate(-48.415)"/><rect class="cls-9" x="60.78" y="167.321" width="3.521" height="2.319" transform="translate(-110.163 118.776) rotate(-53.579)"/><rect class="cls-9" x="68.997" y="172.551" width="3.254" height="2.319" transform="translate(-116.156 157.081) rotate(-62.788)"/><rect class="cls-9" x="75.783" y="177.339" width="6.224" height="2.386" transform="translate(-116.214 184.056) rotate(-67.781)"/><rect class="cls-9" x="86.326" y="179.99" width="3.609" height="2.319" transform="matrix(0.274, -0.962, 0.962, 0.274, -110.224, 216.33)"/><rect class="cls-9" x="96.001" y="181.725" width="3.303" height="2.32" transform="translate(-93.491 263.178) rotate(-84.685)"/><rect class="cls-9" x="105.34" y="182.443" width="3.5" height="2.319" transform="translate(-79.76 284.921) rotate(-88.215)"/><rect class="cls-9" x="115.533" y="181.23" width="2.32" height="3.64" transform="translate(-20.066 14.463) rotate(-6.532)"/><rect class="cls-9" x="125.242" y="179.157" width="2.386" height="6.142" transform="translate(-44.152 40.479) rotate(-15.521)"/><rect class="cls-9" x="134.216" y="176.23" width="2.318" height="4.192" transform="translate(-60.44 69.776) rotate(-23.794)"/><rect class="cls-9" x="142.854" y="171.964" width="2.319" height="4.192" transform="translate(-69.441 100.075) rotate(-31.28)"/><rect class="cls-9" x="150.861" y="166.607" width="2.319" height="4.193" transform="translate(-72.163 132.473) rotate(-38.797)"/><rect class="cls-9" x="158.275" y="160.152" width="2.318" height="4.572" transform="translate(-68.019 170.835) rotate(-47.649)"/><path class="cls-5" d="M69.215,57.263q-1.9-.119-3.8-.174l.055-1.918q1.932.056,3.865.177Z"/><path class="cls-5" d="M165.992,124.349c-.887-2.328-1.882-4.652-2.958-6.91l1.733-.826c1.1,2.305,2.113,4.677,3.018,7.052Zm-5.838-12.467c-1.214-2.165-2.537-4.321-3.932-6.407l1.595-1.067c1.423,2.128,2.773,4.326,4.011,6.536Zm-7.582-11.5c-1.511-1.974-3.126-3.923-4.8-5.8l1.432-1.278c1.7,1.907,3.348,3.894,4.889,5.906ZM143.457,90.04c-1.763-1.749-3.624-3.467-5.53-5.106l1.25-1.455c1.941,1.668,3.836,3.417,5.632,5.2ZM133.05,80.983c-1.977-1.511-4.04-2.981-6.135-4.369l1.061-1.6c2.129,1.411,4.229,2.906,6.24,4.443Zm-11.462-7.691c-2.15-1.261-4.377-2.472-6.619-3.6l.861-1.715c2.279,1.146,4.543,2.376,6.729,3.658Zm-12.3-6.27c-2.287-1-4.64-1.945-7-2.8l.657-1.8c2.393.872,4.784,1.831,7.108,2.848Zm-12.95-4.8c-2.391-.733-4.837-1.4-7.272-1.98l.446-1.867c2.473.59,4.959,1.268,7.388,2.012ZM82.919,58.947c-2.47-.453-4.977-.83-7.452-1.121l.225-1.906c2.515.3,5.062.679,7.573,1.14Z"/><path class="cls-5" d="M169.073,133.971c-.315-1.206-.664-2.437-1.036-3.656l1.836-.56c.38,1.244.735,2.5,1.058,3.731Z"/><path class="cls-10" d="M97.07,74.653l-.059-.2-.127.067L82.405,64.1l-8.741,4.595c-1.779-.566-4.788-.031-7.79,1.546s-5.148,3.753-5.69,5.54l-8.742,4.595.376,17.837-.127.066.131.162,0,.092.052-.027,21.939,26.922,3.142-1.652a1.465,1.465,0,0,0,2.1.841l1.626-.855a1.492,1.492,0,0,0,.627-2.015,1.435,1.435,0,0,0-.128-.193l25.644-13.48L97.093,74.734l.052-.027Z"/><path class="cls-10" d="M73.815,126.418a1,1,0,0,1-.771-.366L51.253,99.312a1.06,1.06,0,0,1-.35-.431,1,1,0,0,1-.186-.8,1.008,1.008,0,0,1,.1-.271l-.366-17.413a.992.992,0,0,1,.531-.9l8.4-4.414c.8-2,3.069-4.161,6.035-5.72s6.025-2.2,8.133-1.727l8.4-4.414a.992.992,0,0,1,1.043.073L97.121,73.465a1.433,1.433,0,0,1,1.016,1.3l9.646,33.028a1,1,0,0,1-.492,1.158l-24.85,13.062a2.489,2.489,0,0,1-1.293,2.626l-1.627.854a2.487,2.487,0,0,1-2.9-.423L74.277,126.3A.99.99,0,0,1,73.815,126.418ZM52.809,98.074l21.263,26.092,2.423-1.274a.994.994,0,0,1,1.4.561.527.527,0,0,0,.317.315.491.491,0,0,0,.38-.036l1.627-.854a.5.5,0,0,0,.209-.673,1.079,1.079,0,0,1-.193-.845,1.022,1.022,0,0,1,.483-.69l24.925-13.1L96.211,75.26l-13.888-10-8.2,4.308a1,1,0,0,1-.764.068c-1.3-.416-3.984-.119-7.026,1.479s-4.8,3.637-5.2,4.948a.99.99,0,0,1-.488.591l-8.2,4.309Z"/><path class="cls-1" d="M52.587,81.722c.219.664,16.338,20.723,16.338,20.723L90.057,91.337,82.151,64.23,94.61,75.067s9.96,32.764,9.708,33.026-30.436,15.869-30.436,15.869L54.626,98.678Z"/><polygon class="cls-11" points="98.746 108.179 78.449 118.848 68.97 102.401 90.04 90.913 98.746 108.179"/><polygon class="cls-12" points="98.85 108.214 78.452 118.888 77.972 117.973 98.259 107.169 98.85 108.214"/><polygon class="cls-3" points="96.352 105.58 77.643 115.388 69.016 102.401 90.04 90.958 96.352 105.58"/><polygon class="cls-12" points="96.624 106.534 78.234 116.16 77.536 115.427 96.322 105.552 96.624 106.534"/><polygon class="cls-1" points="51.442 80.372 82.405 64.096 97.145 74.707 51.824 98.529 51.442 80.372"/><path class="cls-10" d="M75.413,105.162a.861.861,0,0,0-.361,1.163l2.243,4.268a.861.861,0,0,0,1.524-.8l-2.243-4.268A.862.862,0,0,0,75.413,105.162Z"/><path class="cls-10" d="M89.319,97.853a.862.862,0,0,0-.362,1.163l2.244,4.267a.861.861,0,1,0,1.524-.8l-2.244-4.268A.861.861,0,0,0,89.319,97.853Z"/><rect class="cls-12" x="75.445" y="105.625" width="18.483" height="0.804" transform="translate(-39.607 51.579) rotate(-27.728)"/><rect class="cls-12" x="74.297" y="103.44" width="18.483" height="0.804" transform="translate(-38.722 50.793) rotate(-27.728)"/><polygon class="cls-12" points="68.857 97.423 74.629 106.385 90.989 97.785 86.575 88.109 68.857 97.423"/><ellipse class="cls-11" cx="67.656" cy="73.626" rx="8.359" ry="3.829" transform="translate(-26.488 39.934) rotate(-27.728)"/><path class="cls-11" d="M76.321,72.739,74.778,69.8l-14.31,7.522,1.543,2.935a1.92,1.92,0,0,0,.211.936c.981,1.866,5.078,1.642,9.151-.5s6.58-5.389,5.6-7.255A1.936,1.936,0,0,0,76.321,72.739Z"/><ellipse class="cls-11" cx="78.998" cy="95.205" rx="3.042" ry="2.181" transform="translate(-35.225 47.689) rotate(-27.728)"/><path class="cls-3" d="M75.119,87.825c-2.062,1.084-3.562,2.543-3.978,3.728l9.3-4.891C79.234,86.333,77.181,86.741,75.119,87.825Z"/><path class="cls-10" d="M71.093,92.591l-.011.006,1.565,2.976h0c.667,1.194,3.463.971,6.275-.507s4.582-3.655,3.977-4.882h0l-1.565-2.976-.011,0a1.542,1.542,0,0,0-.881-.549l-9.3,4.891A1.544,1.544,0,0,0,71.093,92.591Z"/><path class="cls-12" d="M69.778,90.141l-.01.006,1.564,2.977h0c.667,1.193,3.463.97,6.275-.508s4.582-3.655,3.977-4.882h0l-1.565-2.977-.01.006a1.549,1.549,0,0,0-.882-.55L69.826,89.1A1.547,1.547,0,0,0,69.778,90.141Z"/><path class="cls-11" d="M74.538,86.473a.86.86,0,0,0-.362,1.162l1.7,3.243a.862.862,0,0,0,1.525-.8l-1.7-3.242A.859.859,0,0,0,74.538,86.473Z"/><path class="cls-12" d="M70.475,78.989c-3.772,1.983-7.562,2.325-8.9.894a1.805,1.805,0,0,0,.167.463c.983,1.871,5.093,1.648,9.18-.5s6.6-5.407,5.617-7.278a1.772,1.772,0,0,0-.287-.4C76.677,74.079,74.246,77.007,70.475,78.989Z"/><path class="cls-11" d="M51.691,98.275l22.124,27.149,33.013-17.354L97.011,74.453Zm50.724,9.651L75.894,121.867,57.807,98.562l35.769-18.8Z"/><rect class="cls-10" x="76.767" y="121.372" width="4.822" height="2.985" rx="1.492" transform="translate(-48.074 50.949) rotate(-27.728)"/></g></g></g></svg>